<?xml version="1.0" standalone="no"?><!DOCTYPE svg PUBLIC "-//W3C//DTD SVG 1.1//EN" "http://www.w3.org/Graphics/SVG/1.1/DTD/svg11.dtd"><svg t="1533922944958" class="icon" style="" viewBox="0 0 1024 1024" version="1.1" xmlns="http://www.w3.org/2000/svg" p-id="7662" xmlns:xlink="http://www.w3.org/1999/xlink" width="16" height="16"><defs><style type="text/css"></style></defs><path d="M928 0H96C43.2 0 0 43.2 0 96v832c0 52.8 43.2 96 96 96h832c52.8 0 96-43.2 96-96V96c0-52.8-43.2-96-96-96z m-66.4 340c-3.2 72-53.6 170.6-151 295.8C610 766.6 524.8 832 455.2 832c-43.2 0-79.6-39.8-109.4-119.4-20-73-39.8-146-59.8-219-22-79.6-45.8-119.4-71.2-119.4-5.6 0-25 11.6-58 34.8L122 364.2c36.6-32 72.6-64.2 108-96.2 48.8-42 85.2-64.2 109.6-66.4 57.6-5.6 93 33.8 106.4 118 14.4 91 24.4 147.4 30 169.6 16.6 75.4 34.8 113 54.8 113 15.4 0 38.8-24.4 69.8-73.4s47.6-86.2 49.8-111.8c4.4-42.2-12.2-63.4-49.8-63.4-17.8 0-36 4-54.8 12.2 36.4-119 105.8-177 208.4-173.6 76 2.2 111.8 51.4 107.4 147.8z" fill="#ffffff" p-id="7663"></path></svg>